<?xml version="1.0" encoding="UTF-8"?>
<svg id="uuid-6180782d-bf33-4d5c-bdb6-ca6c38d53c91" data-name="Слой 1" xmlns="http://www.w3.org/2000/svg" viewBox="0 0 500 500">
  <path d="M412.72,58H87.28c-16.17,0-29.28,13.11-29.28,29.28v325.45c0,16.17,13.11,29.28,29.28,29.28h325.45c16.17,0,29.28-13.11,29.28-29.28V87.28c0-16.17-13.11-29.28-29.28-29.28ZM284.78,360.86l-36.55-81.64v-65.13h5.94c15.83,0,23.75-6.8,23.75-20.41,0-12-9.16-18-27.46-18h-13.36v185.18h-75.33V107.59h96.67c29.44,0,52.26,7.3,68.47,21.89,18.06,16.33,27.09,37.05,27.09,62.16s-11.2,47.19-33.58,64.76l43.42,104.46h-79.04Z" style="fill: #fff; stroke-width: 0px;"/>
</svg>